<?xml version="1.0" encoding="UTF-8" standalone="no"?>
<!-- Created with Inkscape (http://www.inkscape.org/) -->

<svg
   width="210mm"
   height="210mm"
   viewBox="0 0 210 210"
   version="1.1"
   id="svg1"
   inkscape:export-xdpi="123.86"
   inkscape:export-ydpi="123.86"
   inkscape:version="1.4 (e7c3feb1, 2024-10-09)"
   sodipodi:docname="icon.svg"
   xmlns:inkscape="http://www.inkscape.org/namespaces/inkscape"
   xmlns:sodipodi="http://sodipodi.sourceforge.net/DTD/sodipodi-0.dtd"
   xmlns="http://www.w3.org/2000/svg"
   xmlns:svg="http://www.w3.org/2000/svg">
  <sodipodi:namedview
     id="namedview1"
     pagecolor="#505050"
     bordercolor="#eeeeee"
     borderopacity="1"
     inkscape:showpageshadow="0"
     inkscape:pageopacity="0"
     inkscape:pagecheckerboard="true"
     inkscape:deskcolor="#d1d1d1"
     inkscape:document-units="mm"
     showguides="false"
     inkscape:zoom="0.70795795"
     inkscape:cx="490.14211"
     inkscape:cy="504.26724"
     inkscape:window-width="1680"
     inkscape:window-height="997"
     inkscape:window-x="0"
     inkscape:window-y="25"
     inkscape:window-maximized="0"
     inkscape:current-layer="g7" />
  <defs
     id="defs1" />
  <rect
     style="fill:#ffffff;fill-opacity:1;stroke:#ccd6ff;stroke-width:0;stroke-dasharray:none;paint-order:stroke fill markers"
     id="rect8"
     width="210"
     height="210"
     x="0"
     y="0" />
  <rect
     style="fill:#00000e;fill-opacity:1;stroke:#ccd6ff;stroke-width:0;stroke-dasharray:none;paint-order:stroke fill markers"
     id="rect7"
     width="183.87511"
     height="183.87511"
     x="13.062447"
     y="13.062447" />
  <g
     inkscape:label="Layer 1"
     inkscape:groupmode="layer"
     id="layer1">
    <g
       id="g5" />
    <g
       id="g6"
       transform="translate(-4.7102284,0.72465056)">
      <g
         id="g7"
         transform="matrix(0.83993889,0,0,0.83993889,18.698093,17.486531)">
        <path
           id="rect2"
           style="fill:#ffffff;fill-opacity:1;stroke:#ccd6ff;stroke-width:0;stroke-dasharray:none;paint-order:stroke fill markers"
           d="M 34.493917,37.054233 V 168.34701 h 22.283911 v -48.79082 c 34.910833,1e-5 63.211672,-18.4688 63.211642,-41.251245 C 119.98906,55.522721 91.688351,37.054224 56.777828,37.054233 Z M 57.175219,52.65173 79.031252,65.288685 100.5922,78.453256 79.031252,91.61731 57.175219,104.2548 56.87963,78.453256 Z"
           sodipodi:nodetypes="cccccscccccccc" />
        <path
           d="m 90.940931,145.35512 c 0,14.36414 8.148078,22.68022 22.008209,22.68022 13.86013,0 21.92421,-8.31608 21.92421,-22.68022 0,-14.36414 -8.06408,-22.68022 -21.92421,-22.68022 -13.860131,0 -22.008209,8.31608 -22.008209,22.68022 z m 13.692129,0 c 0,-9.32409 2.68803,-13.18813 8.31608,-13.18813 5.62805,0 8.31608,3.86404 8.31608,13.18813 0,9.32409 -2.68803,13.18813 -8.31608,13.18813 -5.62805,0 -8.31608,-3.86404 -8.31608,-13.18813 z m 43.11334,21.84021 h 13.60813 v -26.29225 c 0,-3.69604 3.86404,-7.56008 7.81207,-7.56008 4.70405,0 6.21606,2.10002 6.21606,8.82009 v 25.03224 h 13.27213 v -25.45224 c 0,-13.77614 -4.28404,-19.06819 -14.44814,-19.06819 -5.12405,0 -9.57609,2.10002 -13.18812,6.38406 h -0.16801 l -0.168,-5.54405 H 147.7464 Z"
           id="text5"
           style="-inkscape-font-specification:'LightNovelPopV2, Normal';fill:#ffffff;stroke:#ccd6ff;stroke-width:0;paint-order:stroke fill markers"
           aria-label="on" />
      </g>
    </g>
  </g>
</svg>
